<?xml version="1.0" standalone="no"?>
<!DOCTYPE svg PUBLIC "-//W3C//DTD SVG 20010904//EN"
 "http://www.w3.org/TR/2001/REC-SVG-20010904/DTD/svg10.dtd">
<svg version="1.0" xmlns="http://www.w3.org/2000/svg"
 width="6945.000000pt" height="6945.000000pt" viewBox="0 0 6945.000000 6945.000000"
 preserveAspectRatio="xMidYMid meet">
<metadata>
Created by potrace 1.14, written by Peter Selinger 2001-2017
</metadata>
<g transform="translate(0.000000,6945.000000) scale(0.100000,-0.100000)"
fill="#000000" stroke="none">
<path d="M12679 50416 c-2 -2 -33 -7 -69 -10 -36 -4 -72 -9 -80 -11 -8 -2 -31
-6 -50 -9 -178 -28 -394 -102 -580 -199 -87 -45 -174 -98 -178 -109 -2 -5 -8
-8 -13 -8 -9 0 -116 -74 -129 -89 -3 -3 -27 -24 -55 -46 -144 -116 -309 -306
-428 -494 -43 -69 -146 -269 -151 -295 -1 -6 -9 -27 -18 -46 -15 -36 -65 -191
-74 -232 -3 -13 -6 -27 -8 -33 -16 -60 -34 -166 -44 -260 -9 -92 -9 -25232 1
-25310 4 -33 9 -75 12 -92 13 -85 15 -92 30 -158 10 -43 45 -167 52 -185 3 -8
7 -19 9 -25 30 -101 138 -319 218 -439 36 -55 66 -101 66 -103 0 -9 200 -233
247 -276 77 -71 86 -78 186 -153 137 -103 275 -182 422 -243 44 -18 89 -37
100 -41 17 -7 53 -19 75 -25 3 -1 12 -4 20 -7 38 -13 87 -28 110 -32 14 -3 36
-8 50 -11 14 -3 36 -7 50 -10 14 -3 36 -7 50 -10 121 -25 275 -29 1075 -29
707 0 933 4 1001 18 12 2 39 7 60 11 77 12 100 16 159 31 56 14 214 65 260 83
75 31 265 126 265 133 0 4 5 8 11 8 6 0 43 21 82 46 238 153 448 363 609 608
49 74 176 315 186 351 1 6 17 54 36 108 19 53 32 97 30 97 -3 0 0 8 5 18 6 11
12 31 15 46 3 14 7 34 10 44 15 49 32 166 43 292 9 108 9 25095 0 25210 -27
343 -140 669 -330 958 -155 235 -341 423 -577 583 -99 68 -305 177 -375 199
-22 7 -44 16 -50 20 -9 7 -72 29 -98 34 -7 2 -19 5 -27 8 -73 25 -206 55 -285
64 -22 3 -51 8 -65 12 -25 6 -1854 14 -1861 8z"/>
<path d="M54949 50415 c-2 -2 -31 -6 -63 -9 -33 -4 -71 -8 -85 -11 -14 -2 -42
-7 -61 -10 -19 -3 -53 -11 -75 -17 -22 -5 -51 -12 -65 -15 -125 -22 -448 -167
-605 -271 -353 -236 -597 -531 -778 -943 -38 -85 -91 -265 -112 -377 -3 -15
-7 -38 -10 -52 -9 -43 -15 -92 -22 -180 -9 -110 -9 -25086 0 -25205 4 -49 9
-103 11 -120 7 -52 17 -109 21 -125 2 -8 7 -28 9 -45 3 -16 15 -61 26 -100 11
-38 22 -74 23 -80 11 -39 31 -92 40 -102 5 -7 6 -13 3 -13 -4 0 -1 -12 7 -27
7 -16 39 -80 70 -143 161 -330 402 -602 722 -813 199 -131 515 -259 720 -292
11 -2 36 -6 55 -10 139 -26 257 -29 1070 -29 703 0 932 4 995 18 11 2 40 7 65
10 25 3 60 10 78 15 17 5 32 8 32 6 0 -3 11 0 26 5 14 6 37 12 52 15 100 18
430 150 440 176 2 5 9 9 16 9 13 0 165 92 217 132 140 107 218 178 355 324 35
37 157 204 200 274 52 84 134 247 134 266 0 8 5 14 10 14 6 0 9 3 9 8 -1 4 0
10 1 15 1 4 3 10 5 15 4 16 17 48 24 62 9 17 41 124 47 157 2 12 9 34 14 48 5
14 7 25 4 25 -2 0 -1 8 4 18 5 9 12 37 15 62 4 25 9 56 12 70 3 14 8 57 12 95
10 91 10 25230 1 25315 -11 95 -29 193 -52 290 -14 56 -60 197 -68 208 -6 6
-8 12 -5 12 5 0 -12 44 -63 155 -27 60 -121 223 -158 275 -18 25 -40 56 -50
70 -71 101 -231 267 -356 369 -167 136 -394 266 -576 331 -19 6 -44 16 -55 21
-11 4 -38 13 -60 19 -118 33 -147 40 -172 45 -16 3 -39 7 -53 10 -14 3 -45 8
-70 11 -25 3 -54 9 -65 12 -23 7 -1860 14 -1866 7z"/>
<path d="M6468 45045 c-2 -2 -29 -7 -59 -9 -156 -15 -349 -63 -492 -125 -26
-11 -49 -21 -52 -21 -3 0 -32 -15 -66 -33 -33 -17 -73 -38 -87 -46 -63 -33
-194 -125 -285 -201 -243 -203 -450 -508 -550 -810 -47 -142 -65 -217 -84
-360 -10 -70 -10 -14910 -1 -14970 7 -43 12 -69 23 -125 3 -14 7 -37 10 -52 3
-16 10 -43 16 -61 6 -18 12 -39 13 -45 4 -24 28 -94 58 -167 165 -407 473
-744 862 -945 86 -44 218 -102 251 -110 6 -1 17 -5 25 -8 18 -8 203 -54 245
-61 17 -3 55 -9 85 -13 75 -11 1721 -10 1789 0 30 5 63 11 75 13 12 2 35 7 51
9 17 3 38 8 47 11 9 3 26 7 37 9 46 11 60 15 151 45 318 106 636 336 851 613
62 80 169 245 169 261 0 4 11 23 23 44 13 20 32 60 42 87 10 28 22 55 25 60 8
11 52 145 70 215 12 46 15 59 26 120 4 19 8 44 10 55 2 11 7 49 11 85 9 82 9
14814 0 14895 -9 86 -17 135 -29 180 -6 22 -11 47 -12 55 -17 132 -184 504
-283 630 -99 125 -152 187 -203 236 -100 96 -165 154 -171 154 -3 0 -17 10
-30 21 -50 45 -196 134 -303 185 -104 50 -287 117 -349 128 -15 3 -35 7 -45
10 -18 6 -56 13 -112 22 -19 3 -46 8 -60 12 -28 7 -1685 14 -1692 7z"/>
<path d="M61339 45046 c-2 -2 -31 -6 -64 -10 -33 -3 -71 -8 -85 -11 -14 -3
-36 -7 -50 -10 -55 -11 -72 -14 -90 -20 -10 -3 -27 -7 -37 -9 -103 -20 -371
-136 -491 -212 -239 -152 -471 -389 -616 -631 -82 -138 -164 -339 -201 -498
-25 -106 -33 -149 -42 -235 -9 -83 -9 -14815 0 -14895 9 -76 15 -123 22 -155
3 -14 8 -36 10 -50 2 -14 9 -38 15 -55 6 -16 11 -32 11 -35 0 -3 5 -23 11 -45
14 -50 13 -46 22 -70 4 -11 17 -45 29 -75 121 -323 379 -642 684 -848 34 -23
67 -42 72 -42 6 0 11 -4 11 -8 0 -7 201 -114 220 -118 3 0 16 -5 30 -11 61
-26 231 -80 275 -87 17 -3 41 -8 55 -11 14 -3 40 -8 59 -11 18 -3 43 -8 55
-12 35 -10 1716 -12 1776 -2 30 6 71 12 90 15 20 3 47 8 60 11 14 3 36 7 50
10 14 3 34 8 45 11 11 4 25 8 30 9 20 3 111 33 150 49 22 9 49 19 60 22 94 31
369 196 467 281 146 127 272 268 367 409 51 77 143 252 167 318 9 28 21 55 25
60 4 6 13 30 20 55 7 25 14 50 15 55 4 12 23 90 30 120 18 74 24 107 32 165
10 74 9 14910 -1 14981 -4 31 -10 67 -13 80 -2 13 -7 39 -10 57 -3 19 -12 51
-19 73 -8 21 -12 39 -10 39 5 0 -37 125 -67 200 -178 443 -548 817 -993 1005
-22 9 -47 20 -56 25 -13 7 -67 24 -111 36 -5 1 -9 2 -10 4 -2 1 -10 3 -18 5
-8 2 -40 11 -70 19 -30 8 -70 18 -87 21 -18 3 -48 8 -65 11 -18 3 -49 8 -68
11 -38 6 -1685 15 -1691 9z"/>
<path d="M43367 44854 c-1 -1 -155 -5 -342 -9 -187 -4 -378 -8 -425 -10 -127
-4 -396 -16 -470 -20 -36 -2 -119 -6 -184 -10 -65 -3 -151 -8 -190 -11 -39 -2
-102 -7 -141 -9 -84 -5 -222 -15 -290 -21 -27 -2 -84 -6 -125 -9 -41 -4 -95
-8 -120 -10 -25 -2 -74 -7 -110 -10 -36 -3 -85 -8 -110 -10 -25 -2 -74 -7
-110 -10 -36 -3 -85 -8 -110 -10 -89 -10 -136 -15 -185 -20 -27 -3 -66 -7 -85
-10 -19 -2 -60 -7 -90 -10 -30 -3 -66 -8 -80 -10 -22 -3 -71 -9 -170 -20 -40
-4 -131 -15 -175 -22 -72 -10 -89 -12 -144 -19 -30 -3 -64 -8 -75 -10 -19 -3
-42 -7 -136 -20 -20 -2 -45 -6 -55 -8 -11 -2 -45 -7 -75 -11 -30 -4 -64 -9
-75 -12 -11 -2 -33 -5 -50 -7 -35 -4 -102 -15 -132 -20 -12 -3 -43 -8 -70 -12
-26 -5 -51 -9 -55 -10 -5 -1 -14 -2 -21 -3 -10 -1 -12 -944 -12 -4713 l0
-4713 -5127 0 -5127 0 -56 51 c-42 39 -54 56 -49 70 4 11 5 17 2 14 -5 -4
-129 -358 -142 -405 -2 -5 -6 -17 -9 -25 -3 -8 -54 -157 -111 -330 -58 -173
-115 -340 -126 -370 -11 -30 -22 -64 -25 -75 -2 -11 -20 -65 -39 -120 -20 -55
-38 -109 -41 -120 -2 -11 -20 -67 -40 -124 -20 -57 -38 -111 -40 -120 -2 -9
-28 -88 -58 -176 -57 -165 -241 -726 -242 -735 -1 -3 -38 -117 -82 -255 -45
-137 -94 -288 -108 -335 -15 -47 -33 -102 -41 -123 -7 -20 -14 -39 -14 -42 -1
-8 -25 -88 -88 -285 -63 -198 -84 -269 -84 -274 1 -3 -5 -21 -14 -41 -8 -19
-12 -35 -9 -35 3 0 1 -9 -5 -21 -6 -11 -13 -28 -15 -37 -2 -9 -10 -36 -19 -59
-8 -24 -13 -43 -9 -43 3 0 0 -7 -7 -15 -7 -8 -10 -15 -7 -15 3 0 -1 -16 -9
-35 -8 -19 -14 -37 -14 -40 0 -3 -2 -10 -4 -17 -3 -7 -18 -58 -35 -113 -64
-214 -99 -331 -104 -350 -3 -11 -15 -51 -27 -90 -11 -38 -23 -79 -25 -90 -3
-11 -9 -31 -14 -45 -9 -27 -32 -107 -32 -115 0 -2 -6 -20 -15 -40 -8 -19 -12
-35 -9 -35 2 0 0 -12 -6 -27 -10 -25 -65 -215 -74 -253 -2 -8 -20 -69 -39
-135 -20 -66 -38 -129 -41 -140 -8 -37 -14 -60 -38 -145 -14 -47 -28 -98 -33
-115 -4 -16 -8 -32 -9 -35 -13 -44 -28 -100 -32 -119 -2 -14 -6 -28 -8 -31 -2
-4 -16 -51 -31 -106 -25 -96 -29 -111 -39 -155 -2 -12 -9 -36 -15 -54 -6 -18
-13 -42 -15 -54 -6 -24 -4 -19 -40 -156 -15 -55 -29 -110 -31 -122 -2 -12 -9
-34 -14 -48 -5 -14 -7 -25 -5 -25 2 0 0 -11 -5 -25 -5 -14 -12 -36 -14 -48 -2
-12 -12 -51 -21 -87 -9 -36 -19 -73 -21 -83 -2 -10 -6 -27 -9 -37 -6 -18 -13
-50 -19 -80 -2 -9 -14 -15 -32 -15 -28 0 -29 2 -46 85 -10 47 -21 94 -24 105
-3 11 -7 30 -10 42 -2 13 -16 69 -29 125 -14 57 -27 112 -29 123 -2 11 -15 67
-30 125 -15 58 -29 116 -32 130 -3 14 -7 33 -10 42 -3 9 -6 25 -8 35 -2 10
-12 47 -21 83 -9 36 -19 75 -21 87 -2 12 -9 34 -14 48 -5 14 -7 25 -5 25 2 0
0 11 -5 25 -5 14 -12 36 -14 48 -2 12 -12 51 -21 87 -9 36 -19 73 -20 83 -2 9
-6 21 -9 25 -3 5 -8 24 -11 43 -3 19 -13 57 -21 85 -8 28 -17 61 -19 74 -2 13
-12 48 -21 79 -9 31 -17 63 -19 71 -2 8 -13 51 -25 95 -12 44 -23 88 -26 98
-2 9 -6 25 -9 35 -10 37 -26 98 -29 112 -2 8 -11 40 -20 71 -9 31 -19 67 -21
79 -2 13 -9 37 -15 55 -6 18 -12 41 -14 51 -2 11 -10 39 -17 64 -7 25 -14 50
-15 55 -1 6 -12 44 -24 85 -21 73 -42 150 -61 220 -5 19 -11 42 -14 50 -2 8
-20 71 -40 140 -20 69 -37 132 -39 140 -6 22 -145 510 -156 545 -20 62 -52
171 -56 190 -2 11 -8 31 -13 45 -5 14 -18 52 -27 85 -20 70 -18 61 -28 105 -5
19 -11 40 -14 45 -4 6 -7 15 -8 20 -2 12 -59 204 -114 385 -23 74 -45 149 -50
165 -4 17 -20 68 -35 115 -14 47 -27 90 -29 95 -1 6 -11 37 -21 70 -11 33 -19
62 -20 65 -1 3 -4 16 -9 30 -4 14 -21 70 -38 125 -17 55 -38 125 -48 155 -10
30 -28 89 -40 130 -12 41 -26 87 -32 102 -6 15 -10 30 -9 33 1 3 -5 21 -13 40
-9 20 -15 38 -15 40 1 7 -47 166 -66 220 -13 38 -78 244 -80 255 0 3 -12 39
-25 80 -13 41 -24 77 -25 80 -2 12 -68 222 -89 285 -13 39 -45 138 -71 220
-26 83 -80 254 -120 380 -41 127 -95 298 -120 380 -26 83 -61 191 -77 240 -17
50 -32 97 -33 105 -2 8 -16 51 -30 95 -15 44 -28 87 -30 95 -2 8 -18 58 -35
110 -17 52 -33 102 -34 110 -4 14 -28 89 -76 240 -10 30 -37 116 -60 190 -23
74 -44 142 -48 150 -3 8 -6 17 -7 20 -3 14 -51 166 -77 245 -16 50 -31 97 -33
105 -5 20 -75 241 -82 260 -3 8 -7 20 -9 27 -3 15 -33 113 -41 133 -4 8 -7 17
-8 20 -12 44 -37 129 -42 140 -3 8 -7 17 -7 20 -1 3 -14 46 -30 95 -32 103
-33 107 -35 117 -1 5 -8 25 -15 45 -16 43 -110 341 -116 368 -1 6 -6 16 -12
23 -6 6 -8 12 -5 12 4 0 -1 19 -9 43 -9 23 -17 47 -18 52 -1 6 -5 16 -9 23 -5
6 -5 12 -1 12 3 0 1 7 -6 15 -7 8 -10 15 -7 15 3 0 -3 26 -14 58 -11 31 -23
68 -25 81 -3 13 -11 36 -19 51 -8 15 -12 30 -9 33 3 3 1 13 -5 24 -9 16 -102
302 -107 328 -1 6 -12 39 -24 75 -12 36 -23 72 -25 80 -3 14 -46 151 -98 310
-11 36 -22 70 -23 75 -1 6 -28 89 -59 185 -31 96 -58 182 -60 190 -2 8 -19 65
-39 125 -19 61 -35 112 -35 115 0 3 -11 37 -24 75 -14 39 -44 131 -67 205 -23
74 -45 146 -50 160 -13 36 -104 324 -105 330 0 3 -4 11 -8 18 -5 6 -6 12 -3
12 3 0 -3 24 -13 53 -10 28 -38 113 -61 187 -42 136 -61 197 -123 390 -46 141
-91 284 -92 290 -3 11 -67 216 -72 230 -4 8 -7 17 -8 20 -11 40 -121 390 -135
430 -10 28 -93 291 -96 303 -1 4 -3 9 -4 12 -1 3 -3 8 -4 13 -1 4 -15 48 -31
97 -16 50 -30 93 -31 98 -1 4 -2 8 -4 10 -1 1 -3 9 -5 17 -11 45 -15 58 -26
90 -17 49 -22 63 -25 75 -2 11 -63 202 -87 275 -8 25 -31 99 -52 165 -46 146
-106 335 -137 430 -12 39 -23 73 -24 78 -1 4 -3 9 -4 12 -1 3 -4 10 -5 15 -1
6 -4 12 -5 15 -1 3 -3 8 -4 13 -1 4 -13 41 -26 82 -13 41 -25 77 -25 80 -1 3
-16 52 -34 110 l-33 105 -1355 0 c-1042 0 -1357 -3 -1360 -12 -3 -7 1 -21 7
-33 6 -12 13 -29 15 -38 3 -18 132 -416 142 -442 4 -8 7 -17 7 -20 1 -3 5 -11
9 -17 5 -7 6 -13 3 -13 -2 0 5 -24 15 -52 11 -29 22 -62 24 -72 3 -11 18 -58
34 -105 16 -47 59 -180 96 -296 37 -115 71 -219 75 -230 5 -11 14 -36 19 -55
6 -19 43 -132 82 -250 39 -118 72 -223 74 -233 2 -9 7 -22 10 -27 3 -5 8 -18
10 -27 2 -10 34 -112 72 -228 39 -115 107 -325 152 -465 46 -140 85 -262 88
-270 4 -8 7 -17 7 -20 3 -10 149 -456 213 -650 36 -107 66 -199 67 -205 1 -5
7 -23 13 -40 11 -29 166 -505 168 -515 1 -8 166 -513 172 -530 4 -8 7 -17 8
-20 1 -5 19 -63 31 -100 3 -8 5 -16 4 -18 0 -1 7 -16 15 -32 9 -17 13 -30 11
-30 -3 0 10 -44 28 -97 29 -85 208 -629 211 -643 8 -33 19 -67 24 -75 3 -5 6
-12 6 -15 1 -9 126 -395 138 -425 6 -16 12 -32 12 -35 2 -17 40 -127 48 -137
5 -7 7 -13 3 -13 -3 0 7 -37 23 -82 41 -115 224 -679 228 -699 1 -9 8 -29 14
-45 7 -16 13 -33 15 -39 1 -5 25 -80 54 -165 28 -85 53 -162 55 -170 2 -8 38
-118 80 -245 42 -126 78 -237 80 -245 2 -8 11 -35 20 -60 9 -25 17 -49 19 -55
1 -5 9 -32 18 -60 120 -368 160 -492 165 -505 3 -8 7 -21 9 -28 2 -12 80 -250
92 -282 3 -8 6 -17 6 -20 3 -9 138 -425 143 -440 3 -8 7 -19 9 -25 1 -5 25
-80 54 -165 28 -85 53 -162 55 -171 2 -8 10 -32 19 -53 9 -21 18 -48 20 -60 3
-11 29 -95 59 -186 30 -91 73 -223 96 -295 23 -71 43 -134 45 -140 2 -5 4 -13
5 -18 0 -4 8 -21 16 -37 9 -17 14 -30 11 -30 -2 0 14 -53 36 -117 22 -65 41
-125 43 -133 2 -8 25 -78 50 -155 26 -77 48 -147 50 -155 2 -8 15 -46 28 -85
14 -38 37 -108 51 -155 15 -47 30 -92 33 -100 3 -8 7 -19 8 -25 3 -13 105
-325 112 -345 3 -8 7 -19 9 -25 1 -5 14 -46 29 -90 15 -44 28 -84 29 -90 2 -5
6 -17 9 -25 3 -8 15 -42 25 -75 11 -33 65 -202 122 -375 117 -361 109 -339
110 -345 0 -3 9 -25 20 -50 11 -25 17 -45 15 -45 -3 0 11 -44 29 -97 19 -54
44 -129 56 -168 11 -38 24 -77 27 -85 3 -8 7 -19 8 -25 2 -5 27 -84 57 -175
110 -331 222 -675 223 -680 1 -5 105 -326 225 -690 37 -113 113 -347 170 -520
56 -173 120 -369 142 -435 22 -66 41 -124 42 -130 1 -5 4 -14 8 -20 3 -5 14
-39 23 -75 10 -36 24 -77 32 -92 7 -15 13 -30 12 -33 -1 -6 127 -404 168 -520
13 -38 26 -81 29 -94 3 -14 7 -28 10 -33 3 -4 7 -16 9 -25 3 -10 18 -58 35
-108 17 -49 33 -101 36 -115 3 -13 10 -30 16 -37 6 -7 7 -13 4 -13 -4 0 -2 -9
4 -21 6 -11 13 -28 15 -37 2 -9 21 -71 43 -137 22 -66 56 -172 76 -235 20 -63
39 -122 43 -130 3 -8 7 -19 9 -25 3 -15 115 -358 121 -375 8 -18 7 -15 22 -70
7 -25 17 -49 21 -55 5 -5 8 -13 8 -18 0 -12 31 -114 57 -187 13 -36 60 -180
105 -320 45 -140 85 -266 90 -280 10 -31 19 -58 22 -68 1 -4 12 -36 24 -72
l23 -65 1389 -3 1390 -2 10 27 c6 16 17 48 26 73 19 58 91 258 104 290 5 14
10 28 11 32 3 15 13 44 27 78 9 20 16 42 17 50 2 8 5 20 8 25 8 12 49 136 50
150 1 6 6 19 11 30 9 16 92 243 102 280 2 6 6 17 9 25 14 36 50 140 68 195 11
33 24 69 29 80 7 16 19 50 25 75 1 3 5 12 8 20 7 16 96 267 101 285 2 6 6 17
9 25 9 20 95 264 112 315 7 22 36 105 65 185 28 80 58 163 65 185 8 22 23 65
34 95 33 94 101 284 105 295 2 6 6 17 9 25 13 36 91 257 97 280 5 14 27 77 50
140 23 63 46 126 50 140 5 14 29 84 55 155 26 72 48 135 49 140 2 6 6 17 9 25
15 40 42 116 43 120 0 3 4 12 7 20 3 8 22 60 41 115 19 55 60 172 91 260 32
88 63 178 70 200 8 22 30 85 50 140 20 55 38 107 40 115 2 8 4 16 5 18 2 1 3
5 5 10 1 4 7 20 13 35 7 16 12 31 12 34 0 3 16 48 36 101 20 53 38 103 40 112
2 8 15 47 29 85 14 39 46 126 69 195 24 69 65 184 91 255 26 72 48 135 49 140
2 6 6 17 9 25 3 8 19 53 36 100 114 322 144 406 145 415 1 10 20 61 36 100 7
17 20 54 25 75 1 3 7 18 13 33 7 16 12 34 12 41 0 6 4 16 9 21 5 6 14 26 19
45 6 19 26 80 46 135 19 55 57 163 85 240 27 77 72 205 101 285 28 80 55 156
60 170 4 14 19 55 33 93 15 37 24 67 20 67 -3 0 -1 6 4 13 8 9 40 94 48 127 1
3 5 14 9 25 4 11 12 31 16 45 4 14 12 34 16 45 4 11 8 22 9 25 1 3 5 14 9 25
24 65 56 157 72 205 10 30 22 59 26 65 6 6 1482 10 4241 10 l4232 0 0 -4097
c0 -2254 2 -4099 5 -4099 3 -1 569 -2 1257 -3 829 -1 1254 2 1256 9 2 5 3
1757 3 3893 -1 2583 2 3882 9 3883 5 1 15 0 20 -1 6 -1 23 -4 39 -7 16 -3 40
-9 54 -14 14 -5 27 -7 29 -5 3 3 15 1 28 -4 13 -5 40 -11 62 -15 21 -3 50 -7
63 -10 13 -3 40 -7 60 -10 20 -3 46 -7 60 -10 13 -2 46 -7 74 -10 28 -2 61 -7
73 -9 12 -3 53 -8 90 -11 37 -4 82 -8 98 -10 27 -3 79 -7 250 -20 413 -31
1248 -36 1675 -10 185 11 405 28 505 39 17 2 59 7 95 10 36 4 81 9 100 11 19
3 55 7 80 10 25 3 63 8 85 11 22 4 51 8 65 9 62 7 392 60 490 80 14 2 36 7 50
10 26 6 57 12 100 20 39 7 57 11 180 39 63 15 124 28 135 31 11 2 56 13 100
25 44 11 89 22 101 25 12 3 40 11 63 19 22 9 41 13 41 11 0 -3 12 0 28 6 15 6
34 12 42 14 50 12 220 64 238 74 12 6 22 9 22 6 0 -3 14 1 30 10 17 9 30 13
30 11 0 -4 197 63 240 81 8 3 17 7 20 8 21 5 60 19 85 30 17 8 88 37 158 65
326 129 662 296 972 483 128 77 307 192 340 219 5 4 55 40 110 79 92 66 137
100 175 132 8 6 41 33 75 60 33 26 71 58 85 70 14 13 59 52 100 87 219 190
562 558 747 805 115 154 323 470 323 492 0 3 6 14 14 22 14 17 176 321 181
341 2 6 37 84 65 145 10 22 25 56 34 77 19 43 107 269 111 283 1 6 5 17 8 25
10 23 86 260 92 284 3 11 12 46 20 76 23 79 22 76 49 185 14 55 28 115 31 134
3 18 7 36 9 40 2 3 7 23 10 43 3 21 10 57 15 80 6 24 12 57 15 73 3 17 8 41
11 55 2 13 7 40 10 60 3 20 7 46 10 59 2 13 7 42 9 65 9 70 16 120 20 151 3
17 8 57 11 90 3 33 8 76 10 95 4 32 13 130 20 240 23 319 23 845 0 1095 -3 28
-8 79 -11 115 -15 167 -33 308 -49 400 -3 14 -8 42 -11 64 -3 21 -8 48 -10 60
-2 11 -7 35 -9 51 -3 17 -8 37 -10 45 -2 8 -7 29 -10 45 -2 17 -7 41 -10 55
-3 14 -8 36 -11 50 -7 36 -27 117 -38 155 -2 6 -6 24 -10 40 -11 44 -66 236
-76 265 -14 41 -19 60 -20 65 0 3 -7 22 -16 43 -8 20 -17 44 -19 52 -6 24 -46
134 -53 145 -4 6 -7 12 -7 15 -3 25 -69 178 -143 330 -25 52 -46 97 -46 100
-2 12 -132 250 -162 298 -19 29 -34 54 -34 57 0 3 -17 31 -37 62 -21 32 -42
65 -48 74 -121 198 -365 499 -601 743 -28 28 -227 210 -299 273 -130 112 -297
242 -415 323 -19 13 -37 27 -40 30 -7 7 -42 29 -60 37 -8 4 -17 9 -20 13 -13
16 -242 153 -400 240 -194 106 -660 317 -740 336 -3 0 -18 6 -35 13 -16 7 -34
14 -40 15 -5 2 -23 8 -40 15 -38 16 -234 82 -257 86 -9 2 -27 9 -40 16 -13 7
-23 11 -23 10 0 -2 -20 3 -45 10 -25 7 -49 14 -55 15 -5 2 -57 17 -115 33 -58
17 -114 33 -125 35 -11 3 -56 14 -100 26 -44 11 -89 22 -100 25 -11 2 -29 6
-40 9 -17 4 -132 30 -190 42 -11 2 -33 7 -50 9 -16 3 -37 8 -45 10 -8 2 -28 7
-45 10 -16 2 -41 7 -55 10 -14 3 -36 7 -50 9 -14 2 -36 7 -50 10 -14 3 -41 8
-60 11 -19 2 -44 6 -55 9 -11 2 -42 7 -70 11 -76 11 -88 13 -120 19 -16 2 -48
7 -70 10 -22 3 -76 10 -120 16 -122 16 -145 18 -215 26 -36 3 -78 8 -95 9 -16
2 -59 6 -95 10 -36 3 -85 7 -110 10 -293 30 -717 47 -1233 49 -219 1 -399 1
-400 0z m928 -2008 c33 -2 105 -7 160 -11 123 -9 153 -11 235 -20 36 -4 76 -8
90 -10 14 -1 50 -6 80 -10 30 -4 66 -9 80 -11 32 -4 96 -13 129 -19 14 -2 43
-7 65 -10 21 -4 48 -9 60 -11 11 -2 32 -6 46 -9 14 -3 36 -7 50 -10 14 -3 39
-8 55 -11 17 -3 35 -7 40 -8 6 -1 37 -8 70 -15 33 -7 74 -16 90 -21 17 -5 41
-11 55 -14 14 -2 48 -11 75 -19 28 -8 84 -25 125 -37 41 -12 95 -29 120 -37
25 -8 52 -16 60 -18 27 -7 284 -105 325 -124 37 -18 73 -33 85 -35 27 -7 354
-181 445 -237 17 -10 37 -22 45 -26 8 -3 17 -9 20 -12 3 -3 32 -24 65 -46 72
-48 56 -37 182 -133 445 -341 803 -815 1002 -1327 24 -60 47 -119 51 -130 10
-23 70 -213 75 -235 2 -8 8 -35 15 -60 7 -25 14 -53 16 -62 2 -10 6 -26 8 -35
15 -63 26 -113 31 -143 3 -19 8 -46 10 -60 12 -57 13 -68 31 -195 43 -317 51
-807 19 -1130 -2 -16 -6 -57 -9 -90 -3 -33 -8 -71 -11 -84 -2 -14 -7 -45 -10
-70 -3 -25 -7 -57 -10 -71 -3 -14 -8 -45 -11 -70 -3 -25 -7 -53 -10 -62 -6
-21 -13 -53 -20 -97 -3 -19 -10 -45 -15 -58 -5 -13 -7 -23 -5 -23 2 0 -5 -33
-16 -72 -10 -40 -24 -91 -30 -113 -5 -22 -11 -44 -13 -50 -1 -5 -4 -14 -5 -20
-2 -5 -9 -25 -17 -42 -7 -18 -10 -33 -7 -33 4 0 1 -6 -5 -13 -6 -8 -12 -22
-14 -33 -2 -10 -7 -26 -10 -34 -17 -46 -42 -116 -43 -120 0 -3 -8 -22 -17 -44
-9 -21 -17 -40 -17 -42 0 -6 -58 -133 -103 -224 -238 -487 -598 -919 -1047
-1253 -110 -83 -351 -237 -455 -293 -166 -88 -306 -154 -460 -217 -141 -57
-148 -59 -160 -63 -5 -2 -30 -10 -55 -19 -66 -23 -69 -24 -78 -26 -4 -1 -32
-11 -62 -21 -30 -11 -62 -21 -70 -23 -8 -2 -15 -4 -15 -5 0 -1 -9 -3 -19 -5
-10 -2 -42 -11 -70 -20 -28 -10 -59 -19 -68 -21 -10 -2 -27 -6 -38 -9 -11 -3
-29 -7 -41 -10 -11 -2 -29 -7 -39 -10 -17 -6 -29 -8 -82 -20 -36 -8 -133 -29
-138 -30 -33 -8 -71 -16 -95 -20 -16 -3 -41 -7 -55 -10 -31 -6 -124 -22 -170
-29 -19 -3 -46 -8 -60 -10 -14 -3 -47 -7 -75 -10 -27 -3 -61 -8 -75 -11 -14
-3 -52 -7 -85 -10 -33 -3 -76 -7 -94 -10 -33 -4 -143 -14 -236 -20 -415 -28
-1142 -24 -1565 9 -139 11 -279 24 -335 31 -16 2 -57 6 -90 10 -33 4 -67 9
-76 10 -9 2 -40 6 -69 10 -29 4 -62 9 -74 11 -11 2 -36 6 -56 9 -38 6 -70 12
-110 20 -14 3 -36 7 -50 10 -14 3 -36 7 -50 10 -64 14 -76 16 -95 20 -11 3
-42 11 -70 17 l-50 13 0 3779 0 3778 23 9 c13 5 37 11 54 14 17 3 34 7 37 9 3
2 24 7 46 10 22 4 47 8 55 11 8 2 31 6 50 9 19 3 44 7 55 10 11 2 45 7 75 11
30 5 62 9 70 11 8 1 35 5 60 8 25 4 61 9 81 11 20 3 56 8 80 10 117 12 167 17
196 20 17 2 69 7 115 10 46 4 99 8 118 10 98 10 295 20 580 30 113 4 206 8
207 9 4 4 858 -3 918 -8z"/>
<path d="M34668 38925 c-2 -1 -37 -5 -78 -9 -264 -22 -523 -117 -742 -272
-181 -129 -367 -346 -470 -549 -41 -80 -92 -208 -104 -257 -2 -10 -6 -26 -9
-35 -24 -89 -33 -138 -42 -228 -15 -149 -4 -372 22 -465 2 -8 7 -29 10 -47 11
-65 76 -246 117 -326 107 -210 280 -418 438 -528 19 -13 37 -26 40 -29 20 -22
130 -88 210 -126 30 -14 63 -30 72 -35 52 -27 253 -86 323 -96 22 -3 60 -9 85
-13 46 -9 369 -7 405 2 11 3 36 8 55 12 19 3 46 9 60 12 14 3 36 7 49 10 13 3
32 9 43 15 10 5 18 7 18 5 0 -8 129 42 220 86 197 95 377 238 511 408 33 41
64 80 69 87 22 27 89 144 122 213 54 111 108 280 124 387 3 21 8 49 11 63 9
45 11 324 2 380 -5 30 -11 73 -14 95 -4 22 -11 58 -17 80 -6 22 -13 48 -15 57
-6 36 -47 146 -83 223 -165 358 -466 639 -835 780 -84 32 -74 29 -205 60 -57
13 -132 27 -165 30 -72 7 -223 14 -227 10z"/>
<path d="M3597 38384 c-1 -1 -29 -5 -62 -8 -109 -12 -209 -29 -295 -51 -14 -3
-29 -7 -35 -8 -5 -2 -16 -6 -22 -10 -7 -5 -13 -6 -13 -3 0 3 -12 1 -27 -5 -16
-6 -35 -12 -43 -14 -42 -8 -310 -120 -320 -133 -3 -4 -25 -17 -50 -30 -130
-65 -302 -195 -439 -332 -184 -183 -327 -385 -442 -625 -60 -125 -134 -308
-143 -353 -1 -9 -5 -24 -8 -32 -9 -25 -36 -122 -44 -160 -4 -19 -8 -37 -9 -40
-12 -54 -15 -70 -20 -95 -3 -16 -7 -41 -10 -55 -11 -56 -19 -116 -32 -245 -15
-146 -8 -601 11 -702 2 -10 7 -38 10 -63 3 -25 8 -56 11 -70 3 -14 7 -38 10
-55 2 -16 7 -41 10 -55 3 -14 8 -34 10 -45 24 -110 91 -332 108 -352 5 -7 6
-13 1 -13 -4 0 -3 -5 4 -12 7 -7 12 -18 12 -25 0 -7 13 -43 29 -78 17 -36 30
-67 31 -70 1 -2 19 -39 42 -82 282 -539 721 -917 1253 -1077 130 -39 132 -40
205 -52 19 -3 38 -8 41 -9 5 -4 69 -14 134 -21 17 -2 68 -6 115 -9 47 -4 104
-8 127 -9 24 -2 46 1 51 8 4 6 8 1132 8 2501 l-1 2490 -103 0 c-57 1 -104 0
-105 -1z"/>
<path d="M65618 38384 c-4 -8 -3 -4956 1 -4990 1 -7 16 -11 39 -9 20 2 82 6
137 9 55 4 111 8 125 10 14 3 42 7 63 10 85 13 107 18 183 36 43 11 88 22 98
25 30 7 120 37 131 44 6 3 15 6 21 7 20 3 136 56 234 107 81 43 265 158 280
176 3 4 41 36 85 73 126 104 271 265 377 418 47 69 154 252 180 310 9 19 30
64 46 100 51 113 133 370 158 493 2 10 6 27 9 37 3 10 8 33 10 51 3 19 7 45
10 59 3 14 8 45 11 70 3 25 8 54 10 64 19 100 26 562 11 701 -4 39 -10 87 -12
107 -5 46 -14 106 -20 138 -3 14 -8 41 -11 60 -14 91 -94 384 -112 415 -4 6
-7 15 -8 20 -1 6 -8 24 -15 40 -7 17 -13 32 -14 35 -69 187 -216 441 -356 615
-92 114 -279 299 -347 343 -15 9 -29 19 -32 23 -11 13 -158 109 -168 109 -6 0
-12 4 -14 8 -5 13 -114 70 -223 116 -123 53 -284 106 -370 122 -11 2 -33 7
-50 10 -16 4 -39 8 -50 10 -11 1 -36 5 -56 9 -106 18 -355 31 -361 19z"/>
</g>
</svg>
